<?xml version="1.0" encoding="utf-8"?>
<!-- Generator: Adobe Illustrator 27.0.1, SVG Export Plug-In . SVG Version: 6.00 Build 0)  -->
<svg version="1.1" id="Layer_2_00000181769433147375847770000012266243403570809252_"
	 xmlns="http://www.w3.org/2000/svg" xmlns:xlink="http://www.w3.org/1999/xlink" x="0px" y="0px" viewBox="0 0 241 241"
	 style="enable-background:new 0 0 241 241;" xml:space="preserve">
<path d="M205.7,35.3C182.9,12.5,152.7,0,120.5,0S58,12.5,35.3,35.3C26.5,44.1,19.2,54.1,13.5,65l-3.9,7.5l8.5,0.5
	c30.1,1.8,59.4,6,87.2,12.3c4.3-7.6,12.4-12.7,21.7-12.7c13.7,0,24.9,11.2,24.9,24.9c0,0.4,0,0.8,0,1.2c19.1,6.7,37,14.5,53.2,23.3
	c9.4,5.1,18.4,10.6,26.5,16.3l7.6,5.3l1.1-9.2c0.5-4.7,0.8-9.4,0.8-14C241,88.3,228.5,58,205.7,35.3L205.7,35.3z"/>
<circle cx="126.9" cy="97.6" r="17.6"/>
<path d="M15.6,102c25.9,1.5,51.1,4.9,75.2,10c2.2,5.5,5.6,10.4,10,14.4c7.2,6.5,16.5,10.1,26.2,10.1c8.4,0,16.3-2.6,22.9-7.5
	c13.9,5.2,27,11.1,38.9,17.5c10.5,5.6,20.1,11.7,28.8,18c-5.3,11.6-12.5,22.1-21.7,31.2c-20.1,20.1-46.9,31.2-75.3,31.2
	s-55.2-11.1-75.3-31.2S14,148.9,14,120.5C14,114.3,14.5,108.1,15.6,102 M4.5,87.4l-1.1,4.4c-2.3,9.3-3.4,19-3.4,28.7
	c0,32.2,12.5,62.4,35.3,85.2s53,35.3,85.2,35.3s62.4-12.5,85.2-35.3c12.1-12.1,21.3-26.2,27.3-41.9l1.5-3.8l-3.2-2.5
	c-10.5-8.3-22.6-16.1-35.9-23.2c-14.9-8-31.4-15.2-48.9-21.3c-4.6,5.8-11.6,9.6-19.6,9.6c-12.9,0-23.5-9.8-24.8-22.3
	C72.6,93.3,41.3,89.1,9,87.6L4.5,87.4L4.5,87.4L4.5,87.4z"/>
</svg>
