<?xml version="1.0" encoding="UTF-8"?>
<svg id="Layer_2" data-name="Layer 2" xmlns="http://www.w3.org/2000/svg" viewBox="0 0 241 241">
  <defs>
    <style>
      .cls-1 {
        fill: #231f20;
      }
    </style>
  </defs>
  <g id="Layer_1-2" data-name="Layer 1">
    <g>
      <path d="M205.71,35.29C182.95,12.53,152.69,0,120.5,0S58.05,12.53,35.29,35.29c-8.8,8.8-16.14,18.8-21.82,29.74l-3.91,7.52,8.46,.51c30.11,1.81,59.42,5.97,87.17,12.35,4.28-7.6,12.41-12.74,21.73-12.74,13.74,0,24.93,11.18,24.93,24.93,0,.4-.01,.79-.03,1.18,19.14,6.66,37.04,14.47,53.22,23.26,9.45,5.13,18.38,10.63,26.54,16.33l7.56,5.29,1.05-9.17c.54-4.66,.81-9.37,.81-14,0-32.19-12.53-62.45-35.29-85.21Z"/>
      <circle cx="126.93" cy="97.59" r="17.62"/>
      <path class="cls-1" d="M15.6,101.97c25.89,1.53,51.1,4.89,75.15,10.01,2.17,5.46,5.58,10.4,10.02,14.43,7.18,6.52,16.47,10.11,26.15,10.11,8.37,0,16.34-2.64,22.91-7.46,13.9,5.22,26.96,11.1,38.93,17.53,10.47,5.62,20.12,11.66,28.75,17.99-5.26,11.57-12.54,22.05-21.71,31.22-20.11,20.12-46.86,31.19-75.31,31.19s-55.19-11.08-75.31-31.19c-20.12-20.11-31.19-46.86-31.19-75.31,0-6.23,.54-12.44,1.6-18.53m-11.1-14.57l-1.07,4.4c-2.27,9.35-3.43,19.01-3.43,28.7,0,32.19,12.53,62.45,35.29,85.21,22.76,22.76,53.02,35.29,85.21,35.29s62.45-12.53,85.21-35.29c12.08-12.08,21.27-26.19,27.32-41.94l1.46-3.79-3.19-2.51c-10.52-8.26-22.6-16.07-35.91-23.21-14.93-8.01-31.37-15.16-48.86-21.29-4.57,5.81-11.65,9.55-19.6,9.55-12.88,0-23.5-9.81-24.79-22.35-29.51-6.85-60.82-11.08-93.11-12.56l-4.53-.21h0Z"/>
    </g>
  </g>
</svg>