<?xml version="1.0" encoding="utf-8"?>
<!-- Generator: Adobe Illustrator 27.0.1, SVG Export Plug-In . SVG Version: 6.00 Build 0)  -->
<svg version="1.1" id="Layer_1" xmlns="http://www.w3.org/2000/svg" xmlns:xlink="http://www.w3.org/1999/xlink" x="0px" y="0px"
	 viewBox="0 0 654.8 440.2" style="enable-background:new 0 0 654.8 440.2;" xml:space="preserve">
<style type="text/css">
	.st0{opacity:0.5;}
	.st1{fill:#006A6B;}
	.st2{fill:#005454;}
	.st3{fill:#0D131A;}
	.st4{fill:#FDEABE;}
	.st5{fill:#FFFFFF;}
	.st6{fill:#DACAA5;}
	.st7{fill:#DBDCDC;}
	.st8{fill:#76491B;}
	.st9{fill:#5C370C;}
</style>
<ellipse class="st0" cx="327.4" cy="413.7" rx="327.4" ry="26.5"/>
<g>
	<path class="st1" d="M274.9,19.1c5.6,2.7,6.2,8.4,1.7,17.2c-4.1,8.2-10.2,15-18.1,20.5l-11.3,8.3c-4.6,3.4-8.2,5.7-11,7.1
		c-7.9,3.9-12.7,1.9-14.3-5.9c-2.2-10.6-3.5-23.1-3.8-37.6c-0.4-16,0.9-24.5,3.8-25.5c2.6-0.9,10.7,0.8,24.1,5
		C258.4,12.2,268,15.8,274.9,19.1"/>
	<path class="st1" d="M446.4,2.7c2.4,2.1,3.2,11.8,2.6,29.2c-0.5,16.4-1.8,29.2-3.9,38.2c-0.9,3.8-5,3.7-12.5-0.4
		c-6.5-3.5-14.3-9.3-23.3-17.2c-8.6-7.6-15.5-14.7-20.8-21.2c-5.7-7.1-7.4-11.1-5.1-12.1c5.6-2.7,16.9-6.3,33.8-11
		C435.1,3.1,444.8,1.3,446.4,2.7"/>
	<path class="st2" d="M219.2,9c0.8,4.5,1.9,9.5,3.4,15c3.1,11.1,6.5,19.3,10.3,24.5l-11,17.8c-1.1-6.9-2-14.5-2.8-22.7
		C217.5,27.2,217.6,15.7,219.2,9"/>
	<path class="st2" d="M448.5,8.4c1.4,10,1.3,23.3-0.4,39.9c-0.9,8.3-1.9,15.5-3,21.8c-0.4-1.5-2.3-5.2-5.5-11l-4.8-8.3
		c2.4-2.1,5.4-9.8,9-23.1C445.6,21,447.2,14.6,448.5,8.4"/>
	<path class="st3" d="M281.4,20.6c2,1.4,2.8,2.3,2.3,2.8c-0.4,0.5-1.7,0.2-3.9-0.9c-7.7-3.8-18.3-7.7-31.8-11.6
		c-14.5-4.2-22.9-5.5-25-3.8c-2.1,1.6-2.7,11.6-1.8,29.9c0.8,17.4,2.1,29.4,3.8,35.9c0.7,2.6,0.7,4-0.1,4.2c-0.8,0.2-1.7-1-2.6-3.6
		c-0.9-2.5-1.9-7.3-3-14.2c-1.2-7.5-2.1-14.9-2.7-22.4c-1.5-20.1-0.2-31.3,3.8-33.7c3.9-2.3,13.8-0.9,29.7,4.1
		C264.8,11.9,275.3,16.4,281.4,20.6"/>
	<path class="st3" d="M447.2,0.5c3.4,2,4.9,12.7,4.4,32.2c-0.4,19.2-2.3,32.6-5.5,40.2c-1.7,4.1-2.9,5.9-3.6,5.5
		c-0.6-0.4-0.3-2.6,1-6.5c1.7-5.2,2.7-17.4,3-36.8c0.3-19.3-0.2-29.4-1.7-30.4c-1.6-1.1-11.6,0.9-30,6c-17.7,4.9-29.7,8.8-35.9,11.6
		c-2.4,1.1-3.8,1.3-4.2,0.6c-0.4-0.7,0.5-1.7,2.7-3c5.5-3.3,17.7-7.7,36.5-13.2C433.5,1,444.5-1,447.2,0.5"/>
	<path class="st1" d="M413,164.1c-22.1,13.4-49.8,20.1-83.2,20.1c-35.4,0-63.5-7.9-84.4-23.8c-9.7-7.3-17-16-22.1-25.9
		c-5-9.8-7.5-20.3-7.5-31.6c0-31.7,12.2-55.8,36.5-72.3c20.6-14,46.7-21,78.3-21c15.3,0,29.8,1.7,43.6,5.2
		c14.7,3.7,27.5,9.1,38.4,16.3c25.2,16.5,37.7,39.8,37.7,69.9C450.1,128,437.7,149,413,164.1"/>
	<path class="st4" d="M434.2,103.1c0,8.5-2.8,17.2-8.4,26.1c-5.5,8.8-13.1,16.8-22.8,24c-10,7.5-21.2,13.3-33.6,17.5
		c-13.3,4.5-26.9,6.8-40.7,6.8c-28.3,0-52-7.8-71-23.5c-8.4-6.9-15-14.7-19.6-23.5c-4.6-8.7-6.9-17.4-6.9-26.1
		c0-22.8,8.3-41.5,25-56.1c6.4-5.6,13.5-10.2,21.4-13.6c6.8-3,13.1-4.7,18.7-5.1c0.7-0.1,6.6,2.6,17.8,8.1l16.6,8.2l17.8-7.3
		c12.3-4.9,19.3-7.3,21.2-7.3c5.7,0,12.1,1.7,19.3,5c7.6,3.5,14.6,8.2,21.1,14.2C426.2,65.3,434.2,82.9,434.2,103.1"/>
	<path class="st5" d="M293.8,90.9c0.4-1.9,0.9-3.8,1.5-5.7c1.3-3.9,2.5-5.9,3.8-6.2c1.4-0.3,3,1,4.8,3.9c1.6,2.5,2.5,4.4,2.7,5.8
		c0.1,0.8-2,1.4-6.3,1.8L293.8,90.9"/>
	<path class="st5" d="M355.3,89.1l2.2-4.6c1.8-3.1,3.5-4.5,5-4.2c1.6,0.3,2.8,2.2,3.6,5.9l0.7,5.4L355.3,89.1"/>
	<path class="st3" d="M440.6,132.6c4.7-8.9,7-18.2,7-27.8c0-29.1-10.4-51.8-31.1-68.2s-49.4-24.6-86.1-24.6
		c-35.1,0-62.6,8.3-82.5,24.8c-19.8,16.6-29.7,39.6-29.7,68.9c0,9.8,2.2,19.2,6.6,28.1c4.6,9.4,11.4,17.5,20.4,24.5
		c20.4,16,48.8,24,85.2,24c37.6,0,67.2-8.2,88.8-24.7C428.6,150.4,435.7,142.1,440.6,132.6 M452.3,104.8c0,10.2-2.4,20-7.3,29.4
		c-5.2,10-12.6,18.7-22.4,26.3c-22.5,17.4-53.2,26.1-92.3,26.1c-37.8,0-67.2-8.4-88.5-25.3c-9.3-7.4-16.4-16-21.2-25.9
		c-4.6-9.4-6.9-19.3-6.9-29.6c0-30.1,10.4-53.8,31.3-71C265.9,17.5,294.3,9,330.4,9c38.2,0,68,8.4,89.5,25.1
		C441.5,50.9,452.3,74.5,452.3,104.8"/>
	<path class="st3" d="M436,103.1c0,9-2.6,18-7.7,27c-5.2,9-12.4,17.2-21.7,24.4c-9.7,7.6-20.9,13.5-33.4,17.7
		c-13.5,4.5-27.7,6.8-42.7,6.8c-33.1,0-58.9-9-77.7-26.9c-7.6-7.3-13.3-15.5-17.3-24.7c-3.6-8.3-5.4-16.3-5.4-24.2
		c0-21.1,8-39.3,23.9-54.6c6.6-6.3,13.8-11.3,21.7-15c7.5-3.5,14.5-5.2,20.9-5.2l0.9,0.2c6.8,3.8,13.8,7.4,21.1,10.8
		c6.5,3,10.4,4.7,11.8,4.9c1.3-0.1,5.8-1.6,13.3-4.6c7.8-3.1,16.1-6.6,24.7-10.5l0.8-0.1c5.7,0,12.3,1.7,19.7,5.2
		c7.9,3.7,15.2,8.6,21.9,14.8C427.6,64.4,436,82.4,436,103.1 M424,128.6c5.1-8.6,7.6-17.1,7.6-25.5c0-19.8-8-37.1-24.1-51.9
		c-6.3-5.8-13.2-10.4-20.5-13.9c-6.7-3.2-12.5-4.8-17.3-4.9l-21.4,8.8c-10.3,4.1-16.2,6.1-17.8,6.1c-1.1,0-5.3-1.7-12.7-5.1
		c-4.4-2.1-11.6-5.5-21.5-10.4c-7,0.1-14.2,2-21.6,5.8c-7.3,3.7-13.9,8.8-19.9,15.3c-6.3,6.8-11.1,14.3-14.6,22.6
		c-3.8,9-5.7,18.2-5.7,27.6c0,7.4,1.7,15.1,5.1,22.9c3.9,8.7,9.4,16.5,16.6,23.3c18,17,42.8,25.4,74.4,25.4c14,0,27.4-2.1,40.2-6.4
		c12-4,22.7-9.5,32.1-16.7C411.8,144.7,418.9,137.1,424,128.6"/>
	<path class="st3" d="M261.4,67.6c-2.2,0.5-3.3,0.4-3.5-0.3c-0.2-0.7,0.7-1.4,2.7-2.2c6.3-2.4,14.1-3.9,23.4-4.4
		c9.4-0.5,16.8,0.1,22.2,1.9c2,0.7,2.9,1.4,2.8,2.1c-0.1,0.7-1.2,0.9-3.2,0.4c-5.9-1.3-12.8-1.7-20.7-1.2
		C277.6,64.3,269.7,65.6,261.4,67.6"/>
	<path class="st3" d="M400.4,64.5c1.6,1.1,2.1,2,1.6,2.7c-0.5,0.8-1.5,0.6-3.1-0.4c-3.7-2.5-10.7-4-21-4.6
		c-10.4-0.7-18.9-0.1-25.6,1.7c-1.4,0.4-2.1,0.1-2.3-0.6c-0.2-0.8,0.3-1.4,1.7-1.8c7.4-2.4,16.2-3.2,26.5-2.5
		C388.4,59.5,395.8,61.4,400.4,64.5"/>
	<path class="st3" d="M365.8,90.2c1.8,0.6,2.6,1.2,2.5,2c-0.1,0.7-1,0.9-2.8,0.4c-7.5-1.8-18.5-2.7-32.8-2.7
		c-14.3-0.1-26.9,0.7-37.6,2.3c-1.6,0.3-2.6,0-2.8-0.6c-0.2-0.7,0.4-1.2,2-1.5c9.9-2.5,22.2-3.7,37.1-3.7
		C346.5,86.3,358,87.6,365.8,90.2"/>
	<path class="st3" d="M299.7,81c-0.8,0.2-1.7,1.4-2.6,3.6c-1,2.3-1.4,4.2-1.2,5.9c-1.8,0.9-2.8,1-2.8,0.2c-0.1-2,0.2-4.5,1.1-7.3
		c1.1-3.5,2.5-5.5,4.2-6.1c1.6-0.6,3.6,0.7,6,4c2.1,2.9,3.3,5.3,3.7,7.2c0.1,0.6-0.3,1-1.3,1.2c-1,0.2-1.5,0.1-1.6-0.5
		c-0.3-1.9-1.1-3.7-2.3-5.6C301.6,81.7,300.5,80.8,299.7,81"/>
	<path class="st3" d="M363.5,77.9c1.7,0.4,2.9,2.2,3.7,5.4c0.6,2.4,0.8,5.1,0.8,8.3l-1.3,0c-0.9-0.5-1.3-1-1.3-1.4
		c0.2-1.4-0.1-3-0.7-4.9c-0.7-2-1.4-3-2.3-3.1c-0.8-0.2-1.9,0.5-3.2,2c-1.3,1.5-2.2,3.2-2.8,5.1c-0.2,0.6-0.6,0.8-1.4,0.8
		c-0.7,0-1-0.3-0.9-0.9c0.5-3.4,1.9-6.2,4.2-8.6C360.2,78.4,362,77.5,363.5,77.9"/>
	<path class="st1" d="M187.1,154.9l18.9,114.3c-4.5,3.9-13.3,9.7-26.2,17.4c-14.2,8.5-26.1,14.7-35.7,18.7
		c-13.2,5.5-24.4,8.8-33.7,9.9c-12.5,1.5-20.6-1.3-24.2-8.2c-7.1-13.7-8.1-28.3-2.8-43.6c4.6-13.6,14.7-29.4,30.3-47.5
		c9.8-11.3,22.4-23.1,37.8-35.4C163.4,171,175.2,162.5,187.1,154.9"/>
	<path class="st1" d="M506.6,178.4c16.8,13.2,30.2,25.7,40.1,37.5c15.5,18.5,25.8,33.6,30.7,45.3c7.2,17.1,6.2,31.9-2.8,44.5
		c-6.5,9.1-17.7,11.8-33.6,8c-5.3-1.3-11.3-3.3-18-6.1l-12.9-5.7c-5.7-2.4-14.4-7-26.2-14c-11.1-6.6-21.1-12.8-29.9-18.8l16.4-116.2
		C481.4,159.5,493.5,168,506.6,178.4"/>
	<path class="st2" d="M205.7,238c1.7,2.4,2.9,5.9,3.6,10.5c0.8,4.9,0.8,9.4,0,13.5c-0.9,4.8-2.7,8.1-5.5,10
		c-41.4,27.5-70.8,41.7-88,42.7c-10.9,0.6-18.4-0.5-22.5-3.3c-1.3-0.9-2.2-1.9-2.7-3l-0.3-1.4c13.9-6.8,28.9-14.9,45-24.1
		c32.2-18.5,53.9-33.8,65.1-45.8C202.1,235.2,203.9,235.5,205.7,238"/>
	<path class="st2" d="M449.2,241.5c1.7-1.3,4.5,0,8.5,3.8c8.6,8.4,29.7,21.8,63.3,40.2c16.8,9.2,32.7,17.6,47.8,25.1
		c-3.5,2.2-8,3.5-13.6,3.7c-7.8,0.3-17.1-1.3-28-4.8c-10.5-3.5-24.5-10.3-42-20.4c-12.8-7.4-22.2-13.4-28.3-17.8
		c-2-1.4-3.9-4.4-5.7-8.9c-1.8-4.3-2.9-8.5-3.3-12.5C447.3,245.4,447.8,242.6,449.2,241.5"/>
	<path class="st3" d="M469.9,154.6c-5.2-2.9-7.6-4.7-7.1-5.3c0.5-0.6,3.5,0.3,9,2.8c21.2,9.7,43.3,26.3,66.3,49.9
		c10.6,10.9,19.7,21.6,27.1,32.3c7.8,11.3,13.1,21.3,15.9,30.1c2.4,7.6,2.2,16.9-0.5,27.8c-2.8,11.1-6.9,18.3-12.4,21.7
		c-7.4,4.5-17.9,5.2-31.6,2.1c-22.2-5.1-49.7-19.9-82.6-44.6c-3.9-2.9-5.5-4.9-4.8-5.8c0.7-1,3-0.1,7,2.6
		c33.7,23.2,61,37.4,82.2,42.8c12.8,3.2,22.1,3.1,27.8-0.4c4.4-2.7,7.7-8.2,9.9-16.6c2.4-9.2,2.5-18.6,0.1-28.3
		c-3.9-16.2-18.1-36.5-42.4-60.8c-10.4-10.4-21.3-20.1-32.8-29.1C489.6,166.8,479.2,159.8,469.9,154.6"/>
	<path class="st3" d="M549.6,312.3c1.3-0.7,2.9-0.9,4.7-0.8c1.7,0.1,3.2,0.6,4.3,1.4l1.3,1.1c0.4,0.4,0.5,0.9,0.4,1.3
		c-0.3,2.4-1.5,4.7-3.5,7.1c-1.7,2.1-2.9,3.1-3.5,3.1c-1.6,0-3.1-1.5-4.4-4.5c-1.1-2.4-1.6-4.2-1.6-5.4
		C547.3,314.3,548.1,313.1,549.6,312.3"/>
	<path class="st5" d="M553.1,314.8c2,0.1,3.2,0.5,3.6,1.2c0.4,0.7,0,1.9-1.3,3.7c-1.2,1.7-2.1,2.5-2.7,2.6c-0.4,0-1-0.9-1.9-2.8
		c-1-2-1.3-3.2-1-3.8C549.9,315,551.1,314.7,553.1,314.8"/>
	<path class="st3" d="M569,305.7l3.2,0.2c0.8,0.4,1.3,1,1.5,1.8c0.9,2.4,1.4,5,1.5,7.9c0,3-0.4,4.8-1.3,5.4
		c-1.4,0.9-3.7,0.4-6.7-1.5c-3.1-2-4.8-4.1-5.1-6.2c-0.3-1.7,0.4-3.3,2-4.8C565.4,307.2,567.1,306.3,569,305.7"/>
	<path class="st5" d="M570.7,309c0.7,0.1,1.2,1.7,1.5,4.8c0.3,3.1,0.2,4.8-0.3,5.1c-0.5,0.3-1.7-0.4-3.6-2c-2-1.7-3-3-3-3.8
		c0-0.9,0.7-1.8,2.1-2.8C568.8,309.3,569.9,308.8,570.7,309"/>
	<path class="st3" d="M576.1,295.7c1.6-0.6,3.1-0.4,4.5,0.7c1.8,1.4,3.3,3.8,4.6,7.3c1.3,3.5,1.4,5.8,0.5,6.7
		c-0.8,0.8-2.7,0.9-5.8,0.4c-3.3-0.5-5.9-1.6-8-3.1l-1-0.9c-0.3-0.4-0.4-0.8-0.4-1.4l0-0.9c0.2-1.7,0.8-3.3,1.7-4.9
		C573.3,297.6,574.6,296.3,576.1,295.7"/>
	<path class="st5" d="M578.1,299.5c0.7,0.1,1.9,1.5,3.5,4.2c1.6,2.7,2.3,4.4,1.9,4.9c-0.3,0.5-1.8,0.2-4.6-0.9
		c-2.7-1.1-4.2-1.9-4.5-2.5c-0.3-0.7,0-1.8,0.8-3.4C576.2,300.2,577.1,299.4,578.1,299.5"/>
	<path class="st3" d="M577.1,286.1c1.2-0.9,2.6-1.1,4.1-0.4c2.4,1,4.6,3.1,6.7,6.2c2.2,3.1,2.9,5.3,2.1,6.5
		c-0.6,0.9-1.8,1.4-3.8,1.5c-2.5,0.2-5.5-0.3-8.9-1.6c-1.3-0.5-2.2-1.9-2.5-4l-0.1-1.8C574.7,289.5,575.5,287.3,577.1,286.1"/>
	<path class="st5" d="M579.1,288.8c0.9-0.4,2.5,0.6,5,3c2.4,2.4,3.6,4,3.6,5c0,0.8-1.5,1-4.5,0.4c-3-0.5-4.6-1.2-5-2
		c-0.4-0.9-0.5-2.1-0.3-3.6C578.1,290,578.5,289,579.1,288.8"/>
	<path class="st3" d="M575.9,281.4l0.2-2.4c0.3-1.3,0.8-2.4,1.6-3.1c0.8-0.7,1.7-1,2.8-0.9c2.1,0.2,4.9,2,8.2,5.4
		c3.4,3.5,4.5,5.9,3.3,7.1c-0.8,0.9-3,1.3-6.6,1.3l-6.6-0.8c-1-0.4-1.8-1.2-2.3-2.6C576.1,284.3,575.9,282.9,575.9,281.4"/>
	<path class="st5" d="M580.3,278.1c0.8-0.4,2.4,0.6,4.9,3c2.4,2.3,3.6,3.8,3.5,4.4c-0.1,0.5-1.4,0.7-4,0.4c-2.5-0.3-4.1-0.6-4.8-1.1
		c-0.7-0.4-0.9-1.6-0.8-3.4S579.5,278.5,580.3,278.1"/>
	<path class="st3" d="M194.7,151.5c0.6,0.3-0.7,1.3-3.7,3c-9.3,5.2-19.7,12.3-31,21.2c-11.5,9-22.5,18.7-32.8,29.1
		c-24.3,24.3-38.5,44.5-42.4,60.8c-2.5,10.6-2.9,19.8-1.1,27.7c1.8,7.9,5.5,13.6,11.1,17.1c5.8,3.5,15.1,3.7,27.9,0.4
		c21.1-5.4,48.5-19.6,82.2-42.8c3.8-2.6,6-3.4,6.6-2.4c0.7,1-0.8,2.9-4.4,5.6c-27.5,20.8-52.1,34.6-73.7,41.6
		c-18.4,5.9-31.9,6.2-40.5,0.9c-6.7-4.1-11-11.6-13.1-22.6c-1.9-9.9-1.4-19.1,1.2-27.6c6-18.9,20-39.4,42-61.6
		c21.5-21.6,43.5-37.9,66.2-48.7C192.2,151.8,194.1,151.2,194.7,151.5"/>
	<path class="st3" d="M113.8,311.3c1.7,0.9,2.5,2.1,2.5,3.7c0,1-0.8,3-2.4,5.9c-1.7,3.1-3.1,4.7-4.2,4.7c-1.2,0-2.7-1.2-4.6-3.6
		c-2-2.5-3.1-4.7-3.4-6.8c-0.2-1.2,0.3-2.2,1.4-3c1.4-1,3.1-1.5,5.2-1.7C110.4,310.2,112.2,310.5,113.8,311.3"/>
	<path class="st5" d="M109.4,322.7c-0.6,0-1.6-1.1-3-3.3c-1.4-2.3-1.9-3.7-1.6-4.4c0.3-0.6,1-1,2.2-1l3.7,0.3
		c1.4,0.2,2.2,0.5,2.4,0.8c0,1.5-0.5,3.1-1.4,5C110.8,321.8,110,322.7,109.4,322.7"/>
	<path class="st3" d="M92.3,306.2c1.8,0.5,3.5,1.4,5.1,2.8c1.9,1.7,2.8,3.3,2.5,4.8l-0.5-0.3c-0.3,2-2.1,4-5.4,6
		c-3.2,2-5.4,2.6-6.6,1.8c-0.8-0.5-1.1-2.3-1.1-5.4c0-3.1,0.4-5.6,1.2-7.7c0.3-0.8,0.8-1.4,1.5-1.8L92.3,306.2"/>
	<path class="st5" d="M90.7,309.2c0.8-0.2,1.9,0.2,3.5,1.3c1.6,1,2.4,1.9,2.6,2.6c-0.1,0.7-1.2,1.8-3.3,3.2c-2.1,1.4-3.4,2-3.9,1.7
		c-0.6-0.3-0.7-1.7-0.5-4.4C89.4,310.9,89.9,309.4,90.7,309.2"/>
	<path class="st3" d="M85.8,297.3c2,0.8,3.3,2.6,4.1,5.5c0.8,2.8,0.6,4.6-0.5,5.4c-1.7,1.2-4.1,2.2-7.2,2.9l-6.1-0.2
		c-0.9-0.9-0.7-3.1,0.7-6.5c1.4-3.3,2.9-5.6,4.5-6.9L85.8,297.3"/>
	<path class="st5" d="M83.6,299.9c0.8-0.1,1.6,0.7,2.6,2.3c1,1.6,1.3,2.8,1.1,3.5c-0.2,0.7-1.5,1.3-4,2l-4.4,0.2
		c-0.4-0.6,0-2,1.4-4.4C81.7,301.2,82.8,300,83.6,299.9"/>
	<path class="st3" d="M79.2,286.7l1.9-0.2c0.4,0.1,1,0.5,1.7,1c2,1.5,2.9,3.5,2.7,6c-0.1,2.4-1,3.9-2.6,4.5
		c-2.2,0.8-4.6,1.4-7.3,1.6c-3.1,0.3-4.9,0-5.5-0.9c-0.7-1-0.1-2.9,1.8-5.6C73.9,290.1,76.4,287.9,79.2,286.7"/>
	<path class="st5" d="M80.8,289.4c1.1,0.4,1.7,1.1,2,2.2c0.3,1.1,0.1,2.3-0.6,3.5c-0.3,0.6-1.8,1-4.3,1.4l-4.3-0.1
		c-0.4-0.5,0.4-1.9,2.3-4.1C77.9,290,79.5,289,80.8,289.4"/>
	<path class="st3" d="M70.9,280.4c2.7-3.7,5.4-5.6,8.3-5.8c2.4-0.2,3.7,1.7,4,5.7c0.3,4-0.7,6.4-3,7.2c-1.8,0.7-3.5,1.1-5.2,1.3
		c-2.7,0.4-4.5,0.1-5.6-0.8C67.7,286.7,68.2,284.1,70.9,280.4"/>
	<path class="st5" d="M79.2,277.7c0.6,0.6,0.8,1.7,0.8,3.3c0,1.6-0.3,2.7-0.8,3.3c-0.4,0.6-1.8,1.1-4,1.4l-3.7-0.1
		c-0.5-0.8,0.1-2.3,2-4.4C75.5,279.1,77.4,277.9,79.2,277.7"/>
	<path class="st1" d="M522.4,283.5c0,42.7-20.2,73.8-60.7,93.3c-32.6,15.7-77.3,23.6-134.1,23.6c-57.9,0-103.7-9.9-137.3-29.8
		c-34.6-20.4-51.9-48.9-51.9-85.4c0-26.5,4-50.7,12.1-72.5c8.2-22.1,20.2-41,36-56.7c16.2-16.2,36-28.5,59.3-36.9
		c24.3-8.8,51.7-13.2,82.3-13.2c63.2,0,111.7,16,145.4,47.9C506.1,184.7,522.4,227.9,522.4,283.5"/>
	<path class="st4" d="M428.7,125.8c17.1,7.6,30.4,16.8,39.9,27.4c10.8,12.2,16.2,26,16.2,41.4c0,17.9-5.9,31.7-17.8,41.5
		c-9.6,7.9-20.7,11.8-33.3,11.8c-5.8,0-21.3-2.1-46.6-6.3c-25.3-4.2-44.2-6.3-56.5-6.3c-7.5,0-16.2,1-26.2,2.9
		c-5.5,1.1-14.8,3.3-27.7,6.5c-12.3,3.1-21.8,5.2-28.7,6.5c-10.7,2-20.4,2.9-29.1,2.9c-17.2,0-30.3-5.8-39.2-17.3
		c-6.7-8.6-10-18.1-10-28.5c0-15.9,4.4-30.4,13.1-43.6c8.3-12.4,20-23.2,35.3-32.2c14.7-8.7,31.8-15.4,51.4-20
		c19.3-4.6,39.7-6.8,61.2-6.8c15.3,0,31.2,1.6,47.8,4.7C397,114.1,413.8,119.2,428.7,125.8"/>
	<path class="st2" d="M504.4,348.8c-10.3,11.9-24.6,22.1-42.8,30.5c-35,16.1-78.7,24.2-131.1,24.2c-25.1,0-49-2.2-71.7-6.5
		c-23.2-4.4-43.6-10.7-61.2-19c-18.4-8.7-32.6-19.1-42.5-31.1c-10.7-12.9-16-27.1-16-42.6l2.5,2.5c2.3,2.1,4.9,4.3,7.9,6.6
		c9.5,7.4,20.7,14.1,33.4,20.2c40.8,19.6,89.9,29.4,147.6,29.4c49.7,0,96.7-9.5,141-28.6c13.9-6,26.6-12.6,38.2-19.7
		c5.8-3.6,10.3-6.5,13.3-8.9C521.7,321.6,515.4,336,504.4,348.8"/>
	<path class="st3" d="M471.3,370c33.2-19,49.7-45.7,49.7-80.2c0-58.7-16.4-103.7-49.1-135c-32.7-31.4-79.7-47-141-47
		s-108.3,15.7-140.9,47c-32.7,31.3-49.1,76.3-49.1,135c0,34.5,16.6,61.3,49.7,80.2c33.2,19,79.9,28.4,140.3,28.4
		C391.4,398.5,438.2,389,471.3,370 M526.3,289.8c0,35.7-17.1,63.5-51.4,83.3c-34.3,19.8-82.2,29.6-143.9,29.6
		c-61.7,0-109.6-9.9-143.8-29.6c-34.2-19.8-51.3-47.5-51.3-83.3c0-59.4,17-105.1,51.1-137.1c33.8-31.7,81.8-47.5,144-47.5
		c59.5,0,106.2,14.6,139.9,43.7C507.9,180.7,526.3,227.7,526.3,289.8"/>
	<path class="st3" d="M471.6,160.6c-7.5-10.5-18.1-19.8-32-27.7c-13.8-8-29.9-14.1-48.2-18.4c-18.9-4.4-39.1-6.6-60.4-6.6
		c-19.6,0-38.6,2.1-57.1,6.2c-19.4,4.4-36.5,10.7-51.3,18.9c-16,8.9-28.3,19.5-37,31.8c-9.5,13.4-14.2,28.4-14.2,44.9
		c0,11.3,3.9,20.8,11.7,28.7c8.9,9,21.2,13.5,36.7,13.5c6.9,0,25.3-3,55-9.1c29.7-6.1,48-9.2,55-9.2c8.9,0,26.7,2.1,53.5,6.3
		c26.8,4.2,42.6,6.3,47.4,6.3c16.1,0,29.1-5.4,39-16.1c9-9.7,13.4-21.3,13.4-34.6C483.2,183,479.4,171.4,471.6,160.6 M393,112.3
		c18.9,4.3,35.4,10.5,49.6,18.6c14.3,8.1,25.2,17.5,32.9,28.3c7.9,11.2,11.9,23.2,11.9,36c0,14.4-4.9,27-14.6,37.8
		C462,245,448,251,430.8,251c-7.3,0-23.5-2.3-48.6-7c-25.1-4.7-42.5-7-52.3-7c-7.6,0-25.9,3.2-54.8,9.7c-28.9,6.5-47.3,9.7-55.2,9.7
		c-16.8,0-30.1-5-39.9-15c-8.6-8.8-12.9-19.4-12.9-31.7c0-15.3,4-29.5,12.1-42.5c7.8-12.6,19.1-23.6,33.8-32.8
		c14.6-9.2,31.9-16.2,51.8-21.1c20.4-5,42.5-7.5,66.3-7.5C352.9,105.6,373.6,107.9,393,112.3"/>
	<path class="st4" d="M112.2,378.9c-3.2-7.2-4.7-14.4-4.7-21.4c0-22.7,7.7-40.6,23.1-53.8c14.8-12.7,34.2-19,58.3-19
		c18.7,0,34.1,7,46.3,20.9c5.3,6.1,9.5,12.9,12.4,20.6c2.9,7.5,4.3,15,4.3,22.6c0,7.8-1.5,15.7-4.5,23.6
		c-3.2,8.5-7.8,16.1-13.7,22.8c-14.2,16.1-33.2,24.1-56.9,24.1c-20.3,0-37.3-6.8-50.9-20.5C120.1,392.9,115.5,386.3,112.2,378.9"/>
	<path class="st4" d="M482.3,280.1c21.1,0,38.1,5.4,51,16.2c13.8,11.5,20.6,27.5,20.6,48c0,8.7-1.8,17.5-5.4,26.4
		c-3.7,9-8.8,17.2-15.4,24.4c-15.1,16.5-33.6,24.8-55.4,24.8c-19.2,0-34.9-6.9-47.2-20.8c-5.3-6-9.3-12.8-12.2-20.3
		c-2.8-7.3-4.2-14.6-4.2-21.8c0-24.4,7-43.7,20.9-57.7C447.6,286.4,463.4,280.1,482.3,280.1"/>
	<path class="st6" d="M112.2,365.6c4.6,2.4,9.5,4.5,14.8,6.5c16.9,6.3,34.1,9.4,51.5,9.4s34.9-4.4,52.5-13.2
		c8.8-4.4,15.8-8.8,21.1-13.2c0,5.3-1.5,11.4-4.4,18.2c-3.3,7.7-7.9,14.8-13.7,21.2c-15,16.5-34,24.8-57.2,24.8
		c-22.4,0-40.6-8.2-54.5-24.7c-4.9-5.8-8.9-12.1-11.8-19c-2.4-5.6-3.6-9.9-3.6-12.9L112.2,365.6"/>
	<path class="st6" d="M414,347.2l2.6,4.4c2.5,3.5,5.5,6.7,9.1,9.6c11.6,9.4,26.9,14,45.7,14c18.9,0,38.1-2.5,57.7-7.4
		c9.8-2.5,17.7-4.9,23.7-7.4c0,5.4-1.9,11.5-5.6,18.2c-3.9,7-9.1,13.5-15.6,19.5c-15.9,14.6-33.8,21.8-53.9,21.8
		c-23.2,0-40.2-8.2-51.1-24.6C418.2,382.7,414,366.7,414,347.2"/>
	<path class="st3" d="M514.9,287.6c-7.7-2.8-16-4.5-25-5c-8.8-0.5-17.3,0.1-25.3,1.9c-8.3,1.8-15.1,4.7-20.6,8.6
		c-7.6,5.4-13.9,13.2-18.8,23.4c-4.9,10.2-7.7,21.2-8.3,32.9c-0.6,10.8,0.8,20.9,4.1,30.1c3.4,9.3,8.4,16.9,15.1,22.8
		c5.1,4.6,11.2,8.2,18.3,10.9c7.8,3,15.9,4.5,24.3,4.4c20.5-0.1,39.2-9,56.1-26.7c5.2-5.5,9.4-12.2,12.4-20c3.1-7.8,4.7-15.9,5-24.3
		c0.6-19-5.2-34.7-17.4-46.9C529.7,294.7,523.1,290.7,514.9,287.6 M519.6,284.4c7.7,3.2,13.8,7,18.3,11.4
		c6.5,6.5,11.4,14.3,14.6,23.4c3,8.5,4.4,17.5,4.2,27c-0.2,9.2-1.8,18-4.9,26.4c-3.1,8.5-7.4,15.7-12.8,21.6
		c-7.3,7.9-15.6,14.2-25.1,18.8c-9.1,4.4-18.7,7-28.6,7.8c-9.9,0.8-19.4-0.2-28.5-3c-9.4-2.9-17.7-7.6-24.9-14
		c-6.4-5.7-11.3-13.5-14.8-23.6c-3.4-10-4.9-20.6-4.5-31.8c0.4-11.8,2.9-22.7,7.5-32.6c5.1-10.9,12.3-19.7,21.5-26.2
		c14.2-10,31.8-13.9,52.8-11.5C503.3,279.1,511.7,281.2,519.6,284.4"/>
	<path class="st3" d="M106.2,368.8c-2.1-9.4-2.1-19,0-28.9c2-9.5,5.7-18.2,11.1-25.9c5.5-7.9,12.1-13.9,19.7-17.9
		c19.8-10.6,39.1-15,57.8-13.4c18.8,1.6,33.6,9,44.5,22.2c6.7,8.1,11.1,17.4,13.3,27.8c2,9.7,2,19.6-0.1,29.7
		c-2.1,9.8-5.9,18.9-11.4,27.1c-5.6,8.4-12.4,15.1-20.4,20c-6.5,4-14,7-22.6,9c-8.9,2-17.9,2.7-27,2c-21.3-1.6-38.4-9.7-51.3-24.5
		C113,388.1,108.4,379,106.2,368.8 M139.7,299.8c-7.3,3.9-13.5,9.6-18.6,17.1c-5.1,7.5-8.5,15.9-10.2,25.3
		c-1.8,9.7-1.5,19.2,0.8,28.3c2.3,9.1,6.5,17.2,12.5,24.1c11.8,13.5,27.4,21,47,22.4c8.7,0.6,17.3-0.1,25.7-2.2
		c8.4-2.1,15.9-5.4,22.5-9.8c8.2-5.5,14.9-12.3,20-20.4c5.1-8.1,8.4-16.9,9.8-26.5c1.3-9.2,0.8-18.2-1.5-26.9
		c-2.4-8.8-6.3-16.5-11.9-23.3c-10.3-12.5-24.1-19.5-41.6-20.9C176.8,285.4,158.6,289.7,139.7,299.8"/>
	<path class="st5" d="M157.7,258.3c2.2-0.4,6.7,1.9,13.5,6.8c7.5,5.4,12.2,10.5,14,15.3c1.2,3.2,0,6.9-3.4,11.3
		c-2.8,3.6-5.5,5.9-8,7c-2.3,1.1-5.4,1.4-9.3,0.9c-4.7-0.5-7.7-2.2-9-5.1c-1.4-3-1.7-9.8-0.8-20.4
		C155.6,263.8,156.6,258.5,157.7,258.3"/>
	<path class="st7" d="M154.6,275.3c2.4,4.6,5.7,9,10.1,13.3c4.8,4.7,9,7.2,12.4,7.5l0.3,0.1c-1.5,1.3-2.7,2.2-3.7,2.6
		c-2.3,1.1-5.4,1.4-9.3,0.9c-4.7-0.5-7.7-2.2-9-5.1c-0.7-1.5-1.1-4.1-1.2-7.8C154.1,283.4,154.2,279.6,154.6,275.3"/>
	<path class="st5" d="M104.2,293.8c3.5-1.3,9.8-0.4,19.1,2.4c9,2.8,14.3,5.5,15.7,7.9c1.2,2.1,1.2,5.6,0,10.5
		c-1.1,4.3-2.3,7.5-3.8,9.7c-1.2,1.8-4.5,3.2-9.8,4c-5.5,0.9-9.1,0.4-10.7-1.3c-1.8-2.1-4.3-8-7.5-17.7
		C103.8,299.5,102.9,294.3,104.2,293.8"/>
	<path class="st7" d="M120.7,315.1c6.9,5.5,12,8.1,15.3,7.8l-0.9,1.5c-1.2,1.8-4.5,3.2-9.8,4c-5.5,0.9-9.1,0.4-10.7-1.3
		c-1.3-1.5-3.2-5.7-5.7-12.5c-2.5-6.8-4.1-12.2-4.8-16.4C108.9,304.4,114.5,310,120.7,315.1"/>
	<path class="st5" d="M84.7,360.4c0-0.5,0.7-1.4,2-2.9c1.5-1.7,3.3-3.3,5.3-4.7c5.8-4.2,11.3-6,16.7-5.3c5.5,0.7,9.6,3.4,12.3,8.1
		c2,3.6,2.8,7,2.5,10.2c-0.3,3.2-1.3,6-2.9,8.3c-2.4,3.4-5.8,5-10.1,4.6c-4.6-0.4-10.2-3-16.7-8C87.8,366,84.7,362.5,84.7,360.4"/>
	<path class="st7" d="M94.7,371.1c-5.9-4.3-9.1-7.7-9.8-10.2c5.4,2.4,11.6,4.4,18.7,6.1c7.2,1.7,13.6,2.7,19.2,2.9
		c-0.9,2.6-2.1,4.7-3.8,6.2c-2.2,2-4.9,2.8-8.2,2.5C106.3,378.4,101,375.8,94.7,371.1"/>
	<path class="st8" d="M167.8,392.4c-1.8-3.7-2.9-7.5-3.3-11.5c-0.9-9.9,2.6-18.1,10.6-24.6c7.8-6.3,17.4-9.4,28.8-9.4
		c4.3,0,8.1,0.5,11.6,1.4c3.2,0.9,5.2,1.8,6,2.8c5.8,7.7,7.8,15.8,5.9,24.2c-1.6,7.2-5.7,13.5-12.1,19c-5.8,5-13,8.1-21.5,9.5
		c-8.7,1.4-15.3,0.3-19.8-3.4C171.6,398.5,169.5,395.8,167.8,392.4"/>
	<path class="st9" d="M167.8,392.4c-1.8-3.7-2.9-7.5-3.3-11.5l14.1,0.7c16.3,0,32.9-3.9,49.7-11.6c-0.2,4.3-1.5,8.8-4,13.5
		c-2.4,4.6-5.4,8.4-8.9,11.4c-5.8,4.9-13,8-21.5,9.2c-8.7,1.2-15.3,0-19.8-3.6C171.6,398.5,169.5,395.8,167.8,392.4"/>
	<path class="st8" d="M469.5,395.6c-11.1,0.9-19.2-1.9-24.5-8.2c-5.1-6.2-7.2-13.7-6.3-22.6c0.8-7.4,2.9-12.9,6.3-16.3
		c5.3-5.3,13.6-7.7,24.7-7c4.8,0.3,9,1.1,12.8,2.6c3.9,1.5,6.5,3.4,7.9,5.6c3.6,5.8,6,12.2,7,19.3c1.3,8.7-0.3,14.8-4.7,18.4
		C487,392.1,479.2,394.9,469.5,395.6"/>
	<path class="st5" d="M486.5,265.7c8.8-7.7,13.9-11.2,15.4-10.5c1.5,0.7,2.2,6.7,1.9,17.9c-0.2,10.7-0.7,16.9-1.5,18.7
		c-0.6,1.4-2.9,2.3-7,2.5c-4.3,0.3-7.8-0.3-10.5-1.7c-3.5-1.9-6.5-4-9-6.5c-3.1-3-4.1-5.2-3.2-6.8
		C473.6,277.5,478.3,273,486.5,265.7"/>
	<path class="st7" d="M502.4,291.9c-0.6,1.4-2.9,2.3-7,2.5c-4.3,0.3-7.8-0.3-10.5-1.7l-2.9-1.7c4.9,1.7,9.7-1.2,14.3-8.6
		c4-6.4,6.4-13.1,7.3-20.2l0.2-0.1c0.3,4.7,0.3,10.7-0.1,18C503.3,286.8,502.8,290.8,502.4,291.9"/>
	<path class="st5" d="M524.2,292.3c1.7-1.9,7.1-3.9,16.4-6.1c9.2-2.2,14.3-2.7,15.2-1.5c0.7,0.9-1.3,6.2-5.9,15.9
		c-4.5,9.6-7.3,14.7-8.2,15.4c-0.7,0.6-3.1,0.1-7.2-1.4c-4-1.5-7-3.1-9.2-4.6c-2.1-1.5-3.2-4.4-3.4-8.5
		C521.6,297.3,522.4,294.3,524.2,292.3"/>
	<path class="st7" d="M550,300.6c-4.5,9.6-7.3,14.7-8.2,15.4c-0.7,0.6-3.1,0.1-7.2-1.4c-4-1.5-7-3.1-9.2-4.6c-1.1-0.8-1.9-2-2.4-3.6
		l2,1.3c4.9,3.6,10.8,1.7,17.9-5.6c2.7-2.8,7.1-8.6,13-17.3C556.6,285.5,554.6,290.9,550,300.6"/>
	<path class="st5" d="M546.8,341.8c1.6-3.4,3.2-5.1,4.8-5.1c1.6,0,6.1,1.6,13.4,4.9c7.6,3.4,11.4,5.7,11.4,6.9s-3.2,3.7-9.6,7.5
		c-6.2,3.7-10.3,5.6-12.2,5.8c-1.7,0.2-3.7-1.2-6.1-4.2c-2.4-2.9-3.6-5.4-3.8-7.6C544.6,347.7,545.2,345,546.8,341.8"/>
	<path class="st7" d="M550,359.3c-1.7-1.8-3.1-3.7-4.2-5.9l15.5-2.1l15-3.1l0.2,0.4c0,1.2-3.2,3.7-9.6,7.5
		c-6.2,3.7-10.3,5.6-12.2,5.8C553.4,362,551.9,361.1,550,359.3"/>
	<path class="st9" d="M469.5,395.6c-11.1,0.9-19.2-1.9-24.5-8.2c-4.2-5-6.4-11.1-6.5-18.3c9.7,4.1,20.7,6.1,32.9,6.1l26.5-1.6
		c0.2,6.4-1.5,11-5.1,13.8C487,392.1,479.2,394.9,469.5,395.6"/>
	<path class="st3" d="M447,385.9c5.6,5.6,12.8,8.3,21.7,8.1c8.9-0.1,16.6-3,23.2-8.8c3-2.7,4.5-7.1,4.4-13.3
		c-0.1-4.4-0.9-8.6-2.6-12.8c-1.7-4.2-3.8-7.3-6.3-9.3c-4.8-3.9-10.8-6.2-17.9-6.7c-7.7-0.6-14.5,1.1-20.5,5.1
		c-2.5,1.7-4.6,3.9-6.1,6.6c-1.5,2.8-2.5,5.9-2.8,9.3c-0.4,4.1,0,8.1,1.3,12C442.6,380.1,444.5,383.4,447,385.9 M446.2,343.9
		c6.6-4.4,14.4-6.1,23.3-5.1c8,0.9,14.8,3.5,20.3,8c6.2,5.1,10,12.3,11.2,21.6c1.3,9.4-0.7,16.4-5.9,21c-7.1,6.2-15.7,9.2-25.8,9.1
		c-10.2-0.1-18.5-3.4-25-9.9c-6.3-6.3-9.1-14.3-8.5-24.1C436.4,355,439.8,348.1,446.2,343.9"/>
	<path class="st3" d="M502.5,270.7c0-7-0.3-11.5-0.8-13.6c-2.5,1-7.2,4.3-14.1,9.8c-7,5.6-11.3,9.6-12.8,11.9
		c-0.4,0.5-0.5,1.1-0.5,1.7l0.2,1.2c0.5,1.6,1.8,3.3,3.8,5c2,1.7,4.4,3,7,4c3.8,1.5,7.2,2.1,10.4,1.8c3-0.2,4.8-1,5.4-2.5
		c0.4-1,0.7-3.4,1-7.4C502.4,279.2,502.5,275.1,502.5,270.7 M497.7,254.7c3.1-1.7,5.1-2.4,6-2c0.9,0.4,1.6,2.1,2.1,5.2
		c0.8,4.4,0.9,11,0.4,19.8c-0.4,8-1,12.7-1.6,14.1c-1.2,2.7-3.7,4.3-7.7,4.9c-4.1,0.6-8.5,0-13.2-1.8c-4.8-1.8-8.4-4.6-10.9-8.3
		c-2.5-3.8-2.8-7.2-0.8-10.1c1.5-2.2,5-5.7,10.6-10.6C488.7,260.7,493.7,256.9,497.7,254.7"/>
	<path class="st3" d="M554.2,285.5c-2.8,0.1-7.9,1.1-15.2,3c-7.4,2-11.6,3.5-12.8,4.5c-1.7,1.4-2.5,3.4-2.6,5.8v0.1
		c0,1.9,0.5,3.9,1.5,5.9c1,2,2.4,3.8,4.2,5.4c1.6,1.5,3.9,2.7,6.8,3.5c2.7,0.8,4.4,0.9,5.2,0.5c1.1-1.2,3.4-5.6,6.8-13.2
		C551.7,293.4,553.7,288.2,554.2,285.5 M523.2,290c1.2-1.1,4.8-2.5,10.6-4.2c5.9-1.8,11.1-3,15.6-3.6c4.5-0.6,7.3-0.6,8.2,0.1
		c0.9,0.7,0.8,2.8-0.1,6.1c-1.3,4.6-3.5,10.4-6.6,17.4c-3.3,7.3-5.6,11.4-6.8,12.2c-1.6,1.1-4.5,1.1-8.6,0c-4-1.1-7-2.6-9.1-4.5
		c-4-3.7-6.2-8-6.5-13.1C519.4,295.7,520.5,292.3,523.2,290"/>
	<path class="st3" d="M551.5,338.6c-1.2,0.1-2.3,1.4-3.3,3.8c-1.1,2.6-1.6,5.2-1.4,7.8c0.2,2.5,1.1,4.6,2.7,6.5
		c1.6,1.8,3.2,2.7,4.9,2.7c1.5,0,4.9-1.5,10.2-4.5c5.3-3,8.7-5.3,10.3-6.9c-2-1.5-6-3.4-11.9-5.9C556.8,339.6,553,338.4,551.5,338.6
		 M544.7,340.2c1.8-3.4,3.9-5.3,6.4-5.5c2.3-0.2,7.2,1.3,14.9,4.5c7.8,3.3,12.1,5.8,13,7.6c0.5,0.8,0.4,1.7-0.2,2.7
		c-1.2,2-5,4.8-11.4,8.4c-6.4,3.6-10.7,5.4-12.9,5.4c-2.8,0-5.5-1.3-7.9-3.9c-2.5-2.7-3.8-5.7-4-9
		C542.2,346.9,542.9,343.5,544.7,340.2"/>
	<path class="st3" d="M175.7,358.4c-6.1,4.9-9.4,10.9-9.9,18.2c-0.5,6.6,1.2,12.6,5.1,18.1c3.2,4.5,8.9,6.8,17.1,6.9
		c8.4,0.1,15.7-2.1,22-6.7c8.5-6.3,13.8-12.5,15.9-18.7c2.1-6.2,1.2-12.8-2.7-19.9c-1.4-2.5-3.9-4.5-7.4-5.9
		c-3.5-1.3-7.5-2-12.1-1.9C193.2,348.6,183.8,351.9,175.7,358.4 M161,376c0.7-8.9,4.5-16.2,11.6-21.8c8.1-6.5,18.1-9.8,30-9.9
		c5.5-0.1,10.4,0.7,14.5,2.4c4.5,1.8,7.6,4.3,9.5,7.7c4.5,8,5.5,15.5,3.2,22.6c-2.3,7.1-8.2,14.1-17.5,21c-6.8,5-14.6,7.4-23.3,7.4
		c-9-0.1-16.1-2.9-21.3-8.4C162.6,391.4,160.4,384.4,161,376"/>
	<path class="st3" d="M158.4,260.5c-0.5,1.3-1,4-1.4,8c-0.5,4.3-0.7,8.5-0.7,12.5c0,6.3,0.6,10.6,1.8,12.7c0.7,1.1,2.9,2,6.6,2.7
		l9.9-0.3c2.3-0.9,4.5-2.8,6.6-5.8c1.9-2.7,2.8-4.9,2.8-6.5l0-0.5c-1.6-5.7-5.9-11.1-12.8-16.1C165.7,263,161.4,260.8,158.4,260.5
		 M156.3,256.9c1.1-0.6,3.2-0.4,6.2,0.7c3.1,1.2,6.3,3,9.7,5.4c8.7,6.1,14,12.7,16,19.8c0.7,2.5-0.4,5.7-3.2,9.7
		c-2.8,4-5.8,6.6-9,7.8c-3.3,1.3-7.5,1.4-12.4,0.4c-4.9-1-8-2.6-9.2-4.8c-1.9-3.3-2.6-10.4-2-21.1
		C152.9,264.1,154.2,258.1,156.3,256.9"/>
	<path class="st3" d="M102.6,292.8c2.3-2.4,8.1-2.5,17.4-0.3c9.5,2.2,16.3,5.4,20.5,9.6c2,2,2.4,6.2,1.3,12.6
		c-1.1,6.6-3.2,10.9-6.2,12.9c-3.4,2.3-7.6,3.4-12.6,3.4c-4.9,0-8.3-1-10.2-3.2c-1.6-1.8-4-7.4-7.3-16.9
		C101.8,300.6,100.8,294.6,102.6,292.8 M108.8,294.9c-1.4,0-2.5,0.2-3.2,0.5l0,0.3c0,2.4,1.3,7.4,3.8,15.2
		c2.6,7.8,4.5,12.5,5.7,13.9c1.1,1.3,3.6,1.9,7.4,1.8c4.1-0.1,7.5-1.1,10.2-2.9c1.3-0.8,2.4-2.3,3.3-4.4c1-2.1,1.7-4.5,2.1-7.1
		c0.2-1.8,0.3-3.3,0.2-4.7c-0.1-1.1-0.3-1.8-0.5-2.1c-2.3-2.3-6.7-4.6-13.1-6.9C118.3,296,113,294.9,108.8,294.9"/>
	<path class="st3" d="M100.3,351.8c-5.6,2.2-9.6,4.4-12,6.7c-1.2,1.1-1.8,2.1-1.7,2.8c0.2,2.5,3.2,5.6,9.1,9.2
		c5.7,3.5,10.2,5.4,13.6,5.6c3.7,0.3,6.7-0.7,9-3c2.1-2,3.3-4.6,3.7-7.7l0-1.5c0-1.7-0.3-3.4-0.9-5.1c-0.6-1.8-1.5-3.3-2.6-4.7
		c-2.3-2.9-5-4.6-8.2-4.9C108.7,348.9,105.3,349.8,100.3,351.8 M93.8,373.9c-7.2-4.3-10.9-8.4-11.1-12.3c-0.2-3.4,3.5-7.1,11.3-11.2
		c7.4-3.9,13-5.6,17-5.2c3.9,0.4,7.5,2.5,11,6.3c3.9,4.3,5.5,8.8,4.9,13.7c-0.6,4.5-2.5,8.2-5.7,11.1c-3.3,2.9-7.2,4.2-11.5,3.8
		C105.5,379.8,100.2,377.8,93.8,373.9"/>
</g>
</svg>
